<mxfile host="app.diagrams.net" agent="Mozilla/5.0 (Macintosh; Intel Mac OS X 10_15_7) AppleWebKit/537.36 (KHTML, like Gecko) Chrome/131.0.0.0 Safari/537.36" version="26.0.1">
  <diagram name="第 1 页" id="oFUwHmlBy7Hae6jz4WeE">
    <mxGraphModel dx="934" dy="561" grid="1" gridSize="10" guides="1" tooltips="1" connect="1" arrows="1" fold="1" page="1" pageScale="1" pageWidth="827" pageHeight="1169" math="0" shadow="0">
      <root>
        <mxCell id="0" />
        <mxCell id="1" parent="0" />
        <mxCell id="SEpfe_CyvQhXX2ZDESyg-1" value="精准DSP" style="rounded=0;whiteSpace=wrap;html=1;" vertex="1" parent="1">
          <mxGeometry x="200" y="180" width="120" height="60" as="geometry" />
        </mxCell>
        <mxCell id="SEpfe_CyvQhXX2ZDESyg-2" value="合约DSP-M" style="rounded=0;whiteSpace=wrap;html=1;" vertex="1" parent="1">
          <mxGeometry x="680" y="180" width="120" height="60" as="geometry" />
        </mxCell>
        <mxCell id="SEpfe_CyvQhXX2ZDESyg-3" value="合约DSP-A" style="rounded=0;whiteSpace=wrap;html=1;" vertex="1" parent="1">
          <mxGeometry x="360" y="180" width="120" height="60" as="geometry" />
        </mxCell>
        <mxCell id="SEpfe_CyvQhXX2ZDESyg-4" value="合约DSP-B" style="rounded=0;whiteSpace=wrap;html=1;" vertex="1" parent="1">
          <mxGeometry x="520" y="180" width="120" height="60" as="geometry" />
        </mxCell>
        <mxCell id="SEpfe_CyvQhXX2ZDESyg-14" style="edgeStyle=orthogonalEdgeStyle;rounded=0;orthogonalLoop=1;jettySize=auto;html=1;entryX=0.5;entryY=0;entryDx=0;entryDy=0;" edge="1" parent="1" source="SEpfe_CyvQhXX2ZDESyg-5" target="SEpfe_CyvQhXX2ZDESyg-13">
          <mxGeometry relative="1" as="geometry" />
        </mxCell>
        <mxCell id="SEpfe_CyvQhXX2ZDESyg-5" value="" style="rounded=0;whiteSpace=wrap;html=1;fillColor=none;" vertex="1" parent="1">
          <mxGeometry x="170" y="140" width="660" height="120" as="geometry" />
        </mxCell>
        <mxCell id="SEpfe_CyvQhXX2ZDESyg-6" value="DSP" style="text;html=1;align=center;verticalAlign=middle;whiteSpace=wrap;rounded=0;" vertex="1" parent="1">
          <mxGeometry x="170" y="140" width="60" height="30" as="geometry" />
        </mxCell>
        <mxCell id="SEpfe_CyvQhXX2ZDESyg-19" value="" style="edgeStyle=orthogonalEdgeStyle;rounded=0;orthogonalLoop=1;jettySize=auto;html=1;" edge="1" parent="1" source="SEpfe_CyvQhXX2ZDESyg-13" target="SEpfe_CyvQhXX2ZDESyg-18">
          <mxGeometry relative="1" as="geometry" />
        </mxCell>
        <mxCell id="SEpfe_CyvQhXX2ZDESyg-13" value="" style="rounded=0;whiteSpace=wrap;html=1;fillColor=none;" vertex="1" parent="1">
          <mxGeometry x="280" y="310" width="440" height="100" as="geometry" />
        </mxCell>
        <mxCell id="SEpfe_CyvQhXX2ZDESyg-15" value="内容" style="rounded=0;whiteSpace=wrap;html=1;" vertex="1" parent="1">
          <mxGeometry x="360" y="330" width="120" height="60" as="geometry" />
        </mxCell>
        <mxCell id="SEpfe_CyvQhXX2ZDESyg-16" value="广告" style="rounded=0;whiteSpace=wrap;html=1;" vertex="1" parent="1">
          <mxGeometry x="520" y="330" width="120" height="60" as="geometry" />
        </mxCell>
        <mxCell id="SEpfe_CyvQhXX2ZDESyg-17" value="计划" style="text;html=1;align=center;verticalAlign=middle;whiteSpace=wrap;rounded=0;" vertex="1" parent="1">
          <mxGeometry x="280" y="310" width="60" height="30" as="geometry" />
        </mxCell>
        <mxCell id="SEpfe_CyvQhXX2ZDESyg-30" value="" style="edgeStyle=orthogonalEdgeStyle;rounded=0;orthogonalLoop=1;jettySize=auto;html=1;" edge="1" parent="1" source="SEpfe_CyvQhXX2ZDESyg-18" target="SEpfe_CyvQhXX2ZDESyg-29">
          <mxGeometry relative="1" as="geometry" />
        </mxCell>
        <mxCell id="SEpfe_CyvQhXX2ZDESyg-18" value="" style="whiteSpace=wrap;html=1;fillColor=none;rounded=0;" vertex="1" parent="1">
          <mxGeometry x="280" y="440" width="440" height="80" as="geometry" />
        </mxCell>
        <mxCell id="SEpfe_CyvQhXX2ZDESyg-23" value="组" style="text;html=1;align=center;verticalAlign=middle;whiteSpace=wrap;rounded=0;" vertex="1" parent="1">
          <mxGeometry x="280" y="440" width="60" height="30" as="geometry" />
        </mxCell>
        <mxCell id="SEpfe_CyvQhXX2ZDESyg-25" value="sku定向拆分" style="rounded=0;whiteSpace=wrap;html=1;" vertex="1" parent="1">
          <mxGeometry x="440" y="460" width="80" height="40" as="geometry" />
        </mxCell>
        <mxCell id="SEpfe_CyvQhXX2ZDESyg-27" style="edgeStyle=orthogonalEdgeStyle;rounded=0;orthogonalLoop=1;jettySize=auto;html=1;" edge="1" parent="1" source="SEpfe_CyvQhXX2ZDESyg-26">
          <mxGeometry relative="1" as="geometry">
            <mxPoint x="200" y="480" as="targetPoint" />
          </mxGeometry>
        </mxCell>
        <mxCell id="SEpfe_CyvQhXX2ZDESyg-26" value="点位定向" style="rounded=0;whiteSpace=wrap;html=1;" vertex="1" parent="1">
          <mxGeometry x="340" y="460" width="80" height="40" as="geometry" />
        </mxCell>
        <mxCell id="SEpfe_CyvQhXX2ZDESyg-28" value="ssp点位区分内容广告" style="rounded=0;whiteSpace=wrap;html=1;" vertex="1" parent="1">
          <mxGeometry x="90" y="450" width="110" height="60" as="geometry" />
        </mxCell>
        <mxCell id="SEpfe_CyvQhXX2ZDESyg-29" value="" style="whiteSpace=wrap;html=1;fillColor=none;rounded=0;" vertex="1" parent="1">
          <mxGeometry x="280" y="540" width="440" height="70" as="geometry" />
        </mxCell>
        <mxCell id="SEpfe_CyvQhXX2ZDESyg-31" value="物料" style="text;html=1;align=center;verticalAlign=middle;whiteSpace=wrap;rounded=0;" vertex="1" parent="1">
          <mxGeometry x="280" y="540" width="60" height="30" as="geometry" />
        </mxCell>
        <mxCell id="SEpfe_CyvQhXX2ZDESyg-32" value="基于内容批量生成物料" style="rounded=0;whiteSpace=wrap;html=1;" vertex="1" parent="1">
          <mxGeometry x="340" y="555" width="150" height="35" as="geometry" />
        </mxCell>
      </root>
    </mxGraphModel>
  </diagram>
</mxfile>
